# xmcd
#
# Track frame offsets:
# 183
# 14025
# 28408
# 42560
# 56570
# 74193
# 96728
# 112188
# 119458
# 124415
# 137575
# 151180
# 163913
# 180210
# 193958
# 208618
# 222548
# 236543
# 254778
# 270095
# 286430
# 299123
# 310500
#
# Disc length: 4312 seconds
#
#
# Revision: 0
# Processed by: cddbd v1.5.1PL0 Copyright (c) Steve Scherf et al.
# Submitted via: FreeRIP 2.40 
#
DISCID=8210d617
DTITLE=Marlene Dietrich - The Essential Marlene Dietrich
DYEAR=1991
DGENRE=Musical
TTITLE0=Ich Bin Von Kopf Bis Fuss Auf Liebe Eingestellt =Falling In Love Again
TTITLE1=Quand L'Amour Muert
TTITLE2=Give Me The Man
TTITLE3=Leben Ohne Liebe
TTITLE4=Mein Blondes Baby
TTITLE5=Allein In Einer Grossen Stadt
TTITLE6=Peter
TTITLE7=Lola
TTITLE8=Wer Wird Denn Weinen
TTITLE9=Johnny, Wenn Du Geburstag Hast
TTITLE10=Lili Marlene
TTITLE11=Dejeuner Du Matin
TTITLE12=Ou Vont Les Fleurs
TTITLE13=Wenn Die Soldaten
TTITLE14=In Den Kasernen
TTITLE15=Und Wenn Er Wiederkommt
TTITLE16=Wenn Der Sommer Wieder Einzieht =Little On The Lonely Side, A
TTITLE17=Blowing In The Wind
TTITLE18=Die Welt War Jung =When The World Was Young
TTITLE19=Where Have All The Flowers Gone
TTITLE20=Ich Werde Dich Lieben (Theme from "Young Lovers")
TTITLE21=Der Trommelmann =Little Drummer Boy, The
TTITLE22=Auf Der Mundharmonika
EXTD=
EXTT0=
EXTT1=
EXTT2=
EXTT3=
EXTT4=
EXTT5=
EXTT6=
EXTT7=
EXTT8=
EXTT9=
EXTT10=
EXTT11=
EXTT12=
EXTT13=
EXTT14=
EXTT15=
EXTT16=
EXTT17=
EXTT18=
EXTT19=
EXTT20=
EXTT21=
EXTT22=
PLAYORDER=
